<svg version="1.2" xmlns="http://www.w3.org/2000/svg" viewBox="0 0 705 561" width="705" height="561">
	<title>digital-svg</title>
	<style>
		.s0 { fill: #f2f2f2 } 
		.s1 { fill: #e6e6e6 } 
		.s2 { fill: #a0616a } 
		.s3 { fill: #b7ef80 } 
		.s4 { fill: #2f2e41 } 
		.s5 { fill: #cacaca } 
		.s6 { fill: #ffffff } 
		.s7 { fill: #cccccc } 
		.s8 { fill: #3f3d56 } 
	</style>
	<path id="Layer" class="s0" d="m159.7 191.7h5v55h-5z"/>
	<path id="Layer" class="s1" d="m270.4 560h-197l0.3-22.9v-2l1.7-179.1h194l0.3 51.7v2l0.7 150.3z"/>
	<path id="Layer" class="s2" d="m478.2 206c0.1 3.8-2.1 7.2-5.5 8.5-3.5 1.4-7.4 0.5-9.9-2.3-2.5-2.8-3-6.8-1.2-10.1 1.8-3.2 5.4-5 9.1-4.5l20.5-33.9 31.4-57.2c0.6-1.2 1.5-2.3 2.6-3.1 1.1-0.9 2.3-1.5 3.6-1.9 1.4-0.3 2.8-0.4 4.1-0.2 1.4 0.2 2.7 0.6 3.9 1.4 1.1 0.6 2.1 1.5 2.9 2.6 0.7 1.1 1.3 2.3 1.6 3.5 0.3 1.3 0.4 2.6 0.2 3.9-0.2 1.3-0.6 2.6-1.3 3.7l-31.8 54.1z"/>
	<path id="Layer" class="s3" d="m537.9 135.6c-1.9 1-4.2 0.5-6.2-0.1q-3.5-1-6.8-2.3-3.3-1.3-6.5-3-3.2-1.7-6.2-3.7-2.9-2-5.7-4.2-0.3-0.3-0.6-0.6-0.2-0.3-0.4-0.6-0.2-0.3-0.3-0.7-0.1-0.4-0.1-0.8c-0.1-2.1 1.8-2.8 3.5-3.1 1.4-0.2 2.9-0.3 3.9-1.2 1.1-0.9 1.2-2.9 0-3.4 4.8-3.5 11.8-10.8 11.8-10.8 3-4.7 6.1-9.6 11.2-12.1q0.9-0.4 1.8-0.7 1-0.3 2-0.4 1-0.1 2-0.1 1 0.1 2 0.3c6.2 1.5 7.7 7.4 6.7 12.4-0.7 3.5-2.4 6.7-3.9 9.9-1.3 2.9-2.4 6.5-2 9.6q0.1 0.7 0 1.4-0.1 0.7-0.3 1.3-0.3 0.7-0.7 1.3-0.4 0.6-0.9 1-0.1 0.1-0.1 0.1 0 0-0.1 0.1 0 0-0.1 0.1 0 0 0 0.1-0.2 0.2-0.4 0.5-0.1 0.2-0.2 0.5-0.1 0.3-0.2 0.6-0.1 0.3-0.1 0.6 0 0.5-0.2 0.9-0.2 0.5-0.5 0.9-0.3 0.3-0.7 0.6-0.4 0.3-0.9 0.4c1.8 1.1 1.1 4.2-0.8 5.2z"/>
	<path id="Layer" class="s2" d="m587.3 224.2l-65-1-2-15 6-34h51l10 50z"/>
	<path id="Layer" class="s2" d="m500.1 539h-11.1l-5.2-42.6h16.3v42.6z"/>
	<path id="Layer" class="s4" d="m505.9 558.1h-7.9l-1.4-7.5-3.7 7.5h-20.9c-1.1 0-2-0.3-2.8-0.9-0.9-0.6-1.5-1.5-1.8-2.4-0.3-1-0.2-2 0.1-3 0.3-0.9 0.9-1.7 1.8-2.3l16.7-11.6v-7.5l17.7 1z"/>
	<path id="Layer" class="s2" d="m649.3 503.1l-9 6.4-28.7-32 13.4-9.3 24.3 34.9z"/>
	<path id="Layer" class="s4" d="m665.1 515.5l-6.5 4.5-5.5-5.3 1.3 8.2-17.2 12c-0.8 0.6-1.8 0.9-2.8 0.9-1-0.1-2-0.4-2.8-1-0.8-0.6-1.3-1.5-1.6-2.5-0.3-0.9-0.2-2 0.1-2.9l7.1-19.1-4.3-6.2 15.1-9.2z"/>
	<path id="Layer" class="s5" d="m703.5 560.6l-702.3 0.4c-0.3 0-0.6-0.2-0.9-0.4-0.2-0.2-0.3-0.5-0.3-0.8 0-0.3 0.1-0.7 0.3-0.9 0.3-0.2 0.6-0.3 0.9-0.3l702.3-0.3c0.4 0 0.7 0.1 0.9 0.3 0.2 0.2 0.3 0.5 0.3 0.9 0 0.3-0.1 0.6-0.3 0.8-0.2 0.2-0.5 0.3-0.9 0.3z"/>
	<path id="Layer" class="s1" d="m62.9 335.4h215.5v23.8h-215.5z"/>
	<path id="Layer" class="s1" d="m204.8 339.2h-24.7c-2.8-12.5-5.4-25 0-32.5l0.7-2.5c-0.5 0-0.9-0.2-1.2-0.5-0.3-0.3-0.5-0.8-0.5-1.2 0-0.5 0.2-0.9 0.5-1.2 0.3-0.3 0.7-0.5 1.2-0.5q2.9-0.7 5.8-1.1 3-0.3 5.9-0.3 3 0 5.9 0.3 3 0.4 5.9 1.1c0.4 0 0.8 0.2 1.2 0.5 0.3 0.3 0.5 0.7 0.5 1.2 0 0.4-0.2 0.9-0.5 1.2-0.4 0.3-0.8 0.5-1.2 0.5h-0.2l0.7 2.5c5.5 5.9 3.1 18.8 0 32.5z"/>
	<path id="Layer" class="s6" d="m192.5 326.8c-3.7 0-6.8-3-6.8-6.8 0-3.8 3.1-6.9 6.8-6.9 3.8 0 6.9 3.1 6.9 6.9 0 3.8-3.1 6.8-6.9 6.8z"/>
	<path id="Layer" class="s1" d="m223.5 302.6h-24.8c-2.7-12.5-5.3-24.9 0-32.4l0.7-2.5c-0.4 0-0.8-0.2-1.2-0.6-0.3-0.3-0.4-0.7-0.4-1.2 0-0.4 0.1-0.8 0.5-1.2 0.3-0.3 0.7-0.5 1.2-0.5q2.8-0.6 5.8-1 2.9-0.3 5.9-0.3 3 0 5.9 0.3 2.9 0.4 5.8 1c0.5 0 0.9 0.2 1.2 0.5 0.4 0.4 0.5 0.8 0.5 1.3 0 0.4-0.1 0.8-0.5 1.2-0.3 0.3-0.7 0.5-1.2 0.5h-0.1l0.7 2.5c5.5 5.9 3.1 18.8 0 32.4z"/>
	<path id="Layer" class="s6" d="m211.2 290.3c-3.8 0-6.8-3.1-6.8-6.9 0-3.7 3-6.8 6.8-6.8 3.8 0 6.8 3.1 6.8 6.8 0 3.8-3 6.9-6.8 6.9z"/>
	<path id="Layer" class="s1" d="m187.5 302.6h-24.8c-2.7-12.5-5.3-24.9 0-32.4l0.7-2.5c-0.4 0-0.8-0.2-1.2-0.6-0.3-0.3-0.4-0.7-0.4-1.2 0-0.4 0.1-0.8 0.5-1.2 0.3-0.3 0.7-0.5 1.2-0.5q2.8-0.6 5.8-1 2.9-0.3 5.9-0.3 3 0 5.9 0.3 2.9 0.4 5.8 1c0.5 0 0.9 0.2 1.2 0.5 0.4 0.4 0.5 0.8 0.5 1.3 0 0.4-0.1 0.8-0.5 1.2-0.3 0.3-0.7 0.5-1.2 0.5h-0.1l0.7 2.5c5.5 5.9 3.1 18.8 0 32.4z"/>
	<path id="Layer" class="s6" d="m175.2 290.3c-3.8 0-6.8-3.1-6.8-6.9 0-3.7 3-6.8 6.8-6.8 3.8 0 6.8 3.1 6.8 6.8 0 3.8-3 6.9-6.8 6.9z"/>
	<path id="Layer" class="s1" d="m171.5 267.6h-24.8c-2.7-12.5-5.3-24.9 0-32.4l0.7-2.5c-0.4 0-0.8-0.2-1.2-0.6-0.3-0.3-0.4-0.7-0.4-1.2 0-0.4 0.1-0.8 0.5-1.2 0.3-0.3 0.7-0.5 1.2-0.5q2.8-0.6 5.8-1 2.9-0.3 5.9-0.3 3 0 5.9 0.3 2.9 0.4 5.8 1c0.5 0 0.9 0.2 1.2 0.5 0.4 0.4 0.5 0.8 0.5 1.3 0 0.4-0.1 0.8-0.5 1.2-0.3 0.3-0.7 0.5-1.2 0.5h-0.1l0.7 2.5c5.5 5.9 3.1 18.8 0 32.4z"/>
	<path id="Layer" class="s6" d="m159.2 255.3c-3.8 0-6.8-3.1-6.8-6.9 0-3.7 3-6.8 6.8-6.8 3.8 0 6.8 3.1 6.8 6.8 0 3.8-3 6.9-6.8 6.9z"/>
	<path id="Layer" class="s1" d="m207.5 267.6h-24.8c-2.7-12.5-5.3-24.9 0-32.4l0.7-2.5c-0.4 0-0.8-0.2-1.2-0.6-0.3-0.3-0.4-0.7-0.4-1.2 0-0.4 0.1-0.8 0.5-1.2 0.3-0.3 0.7-0.5 1.2-0.5q2.8-0.6 5.8-1 2.9-0.3 5.9-0.3 3 0 5.9 0.3 2.9 0.4 5.8 1c0.5 0 0.9 0.2 1.2 0.5 0.4 0.4 0.5 0.8 0.5 1.3 0 0.4-0.1 0.8-0.5 1.2-0.3 0.3-0.7 0.5-1.2 0.5h-0.1l0.7 2.5c5.5 5.9 3.1 18.8 0 32.4z"/>
	<path id="Layer" class="s6" d="m195.2 255.3c-3.8 0-6.8-3.1-6.8-6.9 0-3.7 3-6.8 6.8-6.8 3.8 0 6.8 3.1 6.8 6.8 0 3.8-3 6.9-6.8 6.9z"/>
	<path id="Layer" class="s1" d="m150.5 302.6h-24.8c-2.7-12.5-5.3-24.9 0-32.4l0.7-2.5c-0.4 0-0.8-0.2-1.2-0.6-0.3-0.3-0.4-0.7-0.4-1.2 0-0.4 0.1-0.8 0.5-1.2 0.3-0.3 0.7-0.5 1.2-0.5q2.8-0.6 5.8-1 2.9-0.3 5.9-0.3 3 0 5.9 0.3 2.9 0.4 5.8 1c0.5 0 0.9 0.2 1.2 0.5 0.4 0.4 0.5 0.8 0.5 1.3 0 0.4-0.1 0.8-0.5 1.2-0.3 0.3-0.7 0.5-1.2 0.5h-0.1l0.7 2.5c5.5 5.9 3.1 18.8 0 32.4z"/>
	<path id="Layer" class="s6" d="m138.2 290.3c-3.8 0-6.8-3.1-6.8-6.9 0-3.7 3-6.8 6.8-6.8 3.8 0 6.8 3.1 6.8 6.8 0 3.8-3 6.9-6.8 6.9z"/>
	<path id="Layer" class="s7" d="m479.5 203.6h-24.8c-2.7-12.5-5.3-24.9 0-32.4l0.7-2.5c-0.4 0-0.8-0.2-1.2-0.6-0.3-0.3-0.4-0.7-0.4-1.2 0-0.4 0.1-0.8 0.5-1.2 0.3-0.3 0.7-0.5 1.2-0.5q2.8-0.6 5.8-1 2.9-0.3 5.9-0.3 3 0 5.9 0.3 2.9 0.4 5.8 1c0.5 0 0.9 0.2 1.2 0.5 0.4 0.4 0.5 0.8 0.5 1.3 0 0.4-0.1 0.8-0.5 1.2-0.3 0.3-0.7 0.5-1.2 0.5h-0.1l0.7 2.5c5.5 5.9 3.1 18.8 0 32.4z"/>
	<path id="Layer" class="s6" d="m467.2 191.3c-3.8 0-6.8-3.1-6.8-6.9 0-3.7 3-6.8 6.8-6.8 3.8 0 6.8 3.1 6.8 6.8 0 3.8-3 6.9-6.8 6.9z"/>
	<path id="Layer" class="s1" d="m131 339.2h-24.8c-2.7-12.5-5.4-25 0-32.5l0.7-2.5c-0.5 0-0.9-0.2-1.2-0.5-0.3-0.3-0.5-0.8-0.5-1.2 0-0.5 0.2-0.9 0.5-1.2 0.3-0.3 0.8-0.5 1.2-0.5q2.9-0.7 5.8-1.1 3-0.3 6-0.3 2.9 0 5.9 0.3 2.9 0.4 5.8 1.1c0.4 0 0.9 0.2 1.2 0.5 0.3 0.3 0.5 0.7 0.5 1.2 0 0.4-0.2 0.9-0.5 1.2-0.3 0.3-0.8 0.5-1.2 0.5h-0.2l0.8 2.5c5.4 5.9 3.1 18.8 0 32.5z"/>
	<path id="Layer" class="s6" d="m118.7 326.8c-3.8 0-6.9-3-6.9-6.8 0-3.8 3.1-6.9 6.9-6.9 3.7 0 6.8 3.1 6.8 6.9 0 3.8-3.1 6.8-6.8 6.8z"/>
	<path id="Layer" class="s1" d="m168 339.2h-24.8c-2.7-12.5-5.4-25 0-32.5l0.7-2.5c-0.5 0-0.9-0.2-1.2-0.5-0.3-0.3-0.5-0.8-0.5-1.2 0-0.5 0.2-0.9 0.5-1.2 0.3-0.3 0.8-0.5 1.2-0.5q2.9-0.7 5.8-1.1 3-0.3 6-0.3 2.9 0 5.9 0.3 2.9 0.4 5.8 1.1c0.4 0 0.9 0.2 1.2 0.5 0.3 0.3 0.5 0.7 0.5 1.2 0 0.4-0.2 0.9-0.5 1.2-0.3 0.3-0.8 0.5-1.2 0.5h-0.2l0.8 2.5c5.4 5.9 3.1 18.8 0 32.5z"/>
	<path id="Layer" class="s6" d="m155.7 326.8c-3.8 0-6.9-3-6.9-6.8 0-3.8 3.1-6.9 6.9-6.9 3.7 0 6.8 3.1 6.8 6.9 0 3.8-3.1 6.8-6.8 6.8z"/>
	<path id="Layer" class="s1" d="m243.8 339.2h-24.8c-2.7-12.5-5.3-25 0-32.5l0.7-2.5c-0.4 0-0.8-0.2-1.2-0.5-0.3-0.3-0.5-0.8-0.4-1.2 0-0.5 0.1-0.9 0.5-1.2 0.3-0.3 0.7-0.5 1.2-0.5q2.8-0.7 5.8-1.1 2.9-0.3 5.9-0.3 3 0 5.9 0.3 2.9 0.4 5.8 1.1c0.5 0 0.9 0.2 1.2 0.5 0.4 0.3 0.5 0.7 0.5 1.2 0 0.4-0.1 0.9-0.5 1.2-0.3 0.3-0.7 0.5-1.2 0.5h-0.1l0.7 2.5c5.5 5.9 3.1 18.8 0 32.5z"/>
	<path id="Layer" class="s6" d="m231.5 326.8c-3.8 0-6.8-3-6.8-6.8 0-3.8 3-6.9 6.8-6.9 3.8 0 6.8 3.1 6.8 6.9 0 3.8-3 6.8-6.8 6.8z"/>
	<path id="Layer" class="s4" d="m590.1 277.1l-21.9 83.8c0 0 7.5 2.3 4.7 6.1-2.8 3.9 4.8 6.3 4.8 6.3 0 0 5-1.1 4.2 5.5-0.9 6.7 5.1 6.7 5.1 6.7l39.7 80.7c0 0 3.6 6.2-15 11-18.5 4.7-78-82.3-78-82.3l-33 103.3c0 0 1 4-20 1-12-2 15.3-224 15.3-234 0-10 0 0 6.7-7.3 6.8-7.2 0.3-5.7 0-10.6-0.2-4.8 15.5-41.1 15.5-41.1l67.9 4.6c19.6 30.1 4 66.3 4 66.3z"/>
	<path id="Layer" class="s3" d="m598.8 88.7c11.1-0.4 16.2 9.2 16.2 9.2 0 0-25.3 66.3-27.7 70.1-2.4 3.8-1.6 2.2-0.2 6.3 1.4 4.2-4.9 9-4.9 9-22.4-9.9-61.5 5.9-59.5 3.9 2-2-1-4-8.9-9.4-8-5.4 0.9-4.6 7.2-7.9 6.3-3.3 4.7-7.7-2.4-30.7-7.1-22.9 8.1-15 8.1-33 0-18 22.2-19.7 22.2-19.7l7.8-13.1 23.4-1.2c0 0 7.6 17 18.7 16.5z"/>
	<path id="Layer" fill-rule="evenodd" class="s8" d="m662.1 294.7l-41.3 22.5-31.8-58.5c-2.9-5.5-3.6-11.9-1.8-17.9 1.7-6 5.8-11 11.3-14 5.5-2.9 11.9-3.6 17.9-1.8 6 1.7 11 5.8 14 11.3zm-40.6 19.7l37.8-20.5-30.7-56.7c-2.7-5-7.3-8.7-12.8-10.4-5.5-1.6-11.4-1-16.4 1.7-5 2.8-8.7 7.4-10.3 12.8-1.7 5.5-1 11.4 1.7 16.4z"/>
	<path id="Layer" class="s3" d="m697.4 336.5l-60.9 33q-1.1 0.6-2.3 0.8-1.3 0.2-2.5 0.1-1.2-0.2-2.4-0.7-1.1-0.6-2-1.5l-41.1-39.4c-0.9-0.9-1.6-1.9-2-3.1-0.4-1.2-0.5-2.4-0.3-3.6 0.1-1.3 0.6-2.4 1.3-3.4 0.7-1.1 1.6-1.9 2.7-2.5l91.3-49.5c1.1-0.6 2.3-0.9 3.5-1 1.3 0 2.5 0.3 3.6 0.8 1.1 0.5 2.1 1.3 2.9 2.3 0.7 1 1.2 2.1 1.5 3.3l10.6 56q0.3 1.2 0.1 2.4-0.1 1.3-0.7 2.4-0.5 1.1-1.4 2.1-0.8 0.9-1.9 1.5z"/>
	<path id="Layer" class="s8" d="m627.6 295.2l6.2-3.3 5.7 10.5-6.1 3.4z"/>
	<path id="Layer" class="s2" d="m611.3 223.6c2.1 3.1 2 7.1-0.2 10.2-2.2 3-6 4.3-9.6 3.3-3.6-1.1-6.1-4.2-6.4-7.9-0.2-3.7 1.9-7.2 5.3-8.7l-0.7-39.7-3.8-65.1c-0.1-1.3 0-2.7 0.5-4 0.5-1.3 1.2-2.5 2.1-3.5 0.9-1 2.1-1.8 3.3-2.4 1.3-0.6 2.6-0.9 4-0.9 1.3 0 2.6 0.2 3.9 0.7 1.2 0.5 2.3 1.2 3.3 2.1 0.9 0.9 1.7 2 2.2 3.2 0.5 1.2 0.8 2.5 0.9 3.8l1.8 62.7z"/>
	<path id="Layer" class="s3" d="m624.3 132.2c-1.1 1.8-3.3 2.6-5.3 3.2q-3.4 1-7 1.7-3.5 0.6-7.1 0.9-3.6 0.3-7.1 0.2-3.6-0.1-7.2-0.6-0.4 0-0.7-0.1-0.4-0.1-0.7-0.3-0.4-0.2-0.6-0.5-0.3-0.2-0.6-0.5c-1.2-1.8 0.1-3.5 1.4-4.6 1-0.9 2.2-1.8 2.6-3.1 0.4-1.3-0.5-3.1-1.8-2.8q0.8-2.1 1.4-4.3 0.7-2.2 1.1-4.4 0.4-2.2 0.5-4.5 0.2-2.2 0.2-4.5l1.1 2.2c-0.1-5.5 0-11.3 3-16.1q0.5-0.9 1.2-1.6 0.6-0.8 1.4-1.4 0.8-0.7 1.7-1.2 0.8-0.5 1.8-0.8c6-2 10.4 2.2 12.3 7 1.3 3.3 1.5 6.9 2 10.4 0.4 3.2 1.3 6.8 3.3 9.2q0.5 0.5 0.8 1.2 0.3 0.6 0.4 1.3 0.1 0.7 0.1 1.4 0 0.7-0.2 1.4 0 0 0 0.1 0 0-0.1 0.1 0 0.1 0 0.1 0 0.1 0 0.1 0 0.3 0 0.6 0 0.3 0.1 0.6 0 0.3 0.1 0.6 0.1 0.3 0.3 0.6 0.2 0.4 0.3 0.9 0.1 0.4 0 0.9 0 0.5-0.2 1-0.2 0.4-0.6 0.7c2.1 0 3.2 3 2.1 4.9z"/>
	<path id="Layer" class="s4" d="m602.5 40.6c-1.3 5 0.2 12.8 0.8 17.4 0.6 4.9-8 9.4-12.9 9.7q0.1-0.7 0-1.3-0.1-0.6-0.2-1.2-0.2-0.5-0.5-1.1-0.2-0.5-0.6-1 0 0.5 0 1.1-0.1 0.6-0.2 1.2-0.1 0.6-0.3 1.2-0.2 0.5-0.4 1.1h-41c-5.2-9.7-9.6-23-4.8-36.7q0.2-2.1 0.9-4 0.8-2 2.1-3.6 1.3-1.6 3-2.8 1.7-1.2 3.7-1.8l22.3-7.1c8.8 0 19.6 1.2 24.5 7.8q1.6 2.2 2.7 4.8 1.1 2.6 1.5 5.3 0.5 2.8 0.3 5.5-0.1 2.8-0.9 5.5z"/>
	<path id="Layer" class="s2" d="m565.2 66.7c-12.7 0-23-10.3-23-23 0-12.8 10.3-23 23-23 12.7 0 23 10.2 23 23 0 12.7-10.3 23-23 23z"/>
	<path id="Layer" class="s4" d="m594.2 37.7v5h-19.9q0.1-0.8 0.1-1.5 0-0.7-0.1-1.5-0.2-0.7-0.4-1.4-0.3-0.6-0.8-1.2 0 0.7-0.1 1.4-0.1 0.7-0.2 1.4-0.2 0.8-0.5 1.4-0.3 0.7-0.6 1.4c-11.5 3.4-21.2 3.3-29.1 0q-0.9 0-1.7-0.4-0.8-0.3-1.4-0.9-0.6-0.7-1-1.5-0.3-0.8-0.3-1.7c0-15.3 12.1-28.2 27.4-28.5 3.7-0.1 7.4 0.6 10.9 1.9 3.5 1.4 6.6 3.4 9.3 6.1 2.6 2.6 4.8 5.7 6.2 9.1 1.5 3.4 2.2 7.1 2.2 10.9z"/>
	<path id="Layer" class="s4" d="m594.9 10.6q-0.1 0.8-0.4 1.5-0.3 0.7-0.7 1.3-0.5 0.6-1.1 1.1-0.6 0.4-1.4 0.7-0.6 0.1-1.3 0.2-0.7 0-1.3 0-0.7 0-1.4-0.1-0.6-0.1-1.3-0.3-6.9-1.4-13.9-2.8-0.4-0.1-0.8-0.2-0.4-0.1-0.8-0.2-0.4-0.2-0.8-0.3-0.4-0.2-0.7-0.4-0.4-0.3-0.8-0.6-0.3-0.4-0.6-0.8-0.3-0.4-0.4-0.8-0.2-0.5-0.3-0.9-0.1-0.6 0-1.1 0-0.6 0.2-1.1 0.2-0.6 0.4-1 0.3-0.5 0.7-0.9 0.3-0.3 0.7-0.6 0.4-0.3 0.8-0.5 0.5-0.2 0.9-0.4 0.5-0.1 0.9-0.2 1.6-0.4 3.2-0.5 1.6-0.1 3.2 0.1 1.6 0.2 3.2 0.7 1.5 0.5 3 1.2l-0.7-3.7c1.8 2.2 4.5 2.7 6.9 3.8 2.3 1.1 4.8 3.7 4.6 6.8z"/>
	<path id="Layer" class="s0" d="m215.1 178.7l-109.6 35.3q-0.7 0.3-1.5 0.2-0.8 0-1.4-0.4-0.7-0.4-1.2-0.9-0.5-0.6-0.8-1.4l-13.8-42.9q-0.3-0.8-0.2-1.5 0.1-0.8 0.4-1.5 0.4-0.7 0.9-1.2 0.6-0.5 1.4-0.7l109.6-35.4q0.7-0.2 1.5-0.1 0.8 0 1.4 0.4 0.7 0.3 1.2 0.9 0.5 0.6 0.8 1.3l13.8 43q0.3 0.7 0.2 1.5-0.1 0.8-0.4 1.4-0.4 0.7-0.9 1.2-0.6 0.5-1.4 0.8z"/>
	<path id="Layer" class="s6" d="m188.8 184.6l-66.6 21.5c-2.5 0.8-5.1 1.1-7.7 0.9-2.5-0.3-5.1-1-7.4-2.1-2.3-1.2-4.3-2.8-6-4.8-1.7-2-2.9-4.3-3.7-6.7l-2.7-8.2c-0.8-2.4-1.1-5-0.8-7.6 0.2-2.6 0.9-5.1 2.1-7.4 1.1-2.3 2.8-4.3 4.7-6 2-1.7 4.3-3 6.7-3.8l74.9-24.1c2.4-0.8 5-1.1 7.6-0.9 2.6 0.2 5.1 0.9 7.4 2.1 2.3 1.2 4.3 2.8 6 4.8 1.7 1.9 2.9 4.2 3.7 6.7 1.2 3.5 1.6 7.2 1.3 10.9-0.3 3.7-1.3 7.3-3 10.6-1.7 3.3-4 6.3-6.9 8.7-2.8 2.4-6.1 4.2-9.6 5.4z"/>
	<path id="Layer" class="s1" d="m160.9 156.8l-44.1 14.2q-0.4 0.1-0.8-0.1-0.3-0.2-0.5-0.5-0.1-0.4 0.1-0.8 0.2-0.4 0.6-0.5l44-14.2q0.4-0.1 0.8 0 0.4 0.2 0.5 0.6 0.1 0.4-0.1 0.8-0.2 0.3-0.5 0.5z"/>
	<path id="Layer" class="s1" d="m186.4 159.7l-66.3 21.4q-0.4 0.2-0.8 0-0.4-0.2-0.5-0.6-0.1-0.4 0.1-0.8 0.2-0.3 0.6-0.5l66.3-21.4q0.4-0.1 0.8 0.1 0.3 0.2 0.5 0.6 0.1 0.4-0.1 0.7-0.2 0.4-0.6 0.5z"/>
	<path id="Layer" class="s1" d="m189.7 169.9l-66.4 21.4q-0.4 0.1-0.7-0.1-0.4-0.2-0.5-0.6-0.1-0.4 0-0.7 0.2-0.4 0.6-0.5l66.4-21.4q0.4-0.2 0.8 0 0.3 0.2 0.5 0.6 0.1 0.4-0.1 0.8-0.2 0.3-0.6 0.5z"/>
	<path id="Layer" class="s1" d="m189.7 169.9l-66.4 21.4q-0.4 0.1-0.7-0.1-0.4-0.2-0.5-0.6-0.1-0.4 0-0.7 0.2-0.4 0.6-0.5l66.4-21.4q0.4-0.2 0.8 0 0.3 0.2 0.5 0.6 0.1 0.4-0.1 0.8-0.2 0.3-0.6 0.5z"/>
	<path id="Layer" class="s3" d="m195.2 146.4c-6.4 0-11.6-5.1-11.6-11.5 0-6.4 5.2-11.6 11.6-11.6 6.3 0 11.5 5.2 11.5 11.6 0 6.4-5.2 11.5-11.5 11.5z"/>
	<path id="Layer" class="s6" d="m194.7 139.5q-0.1 0-0.2 0-0.1-0.1-0.2-0.1-0.1-0.1-0.2-0.1-0.1-0.1-0.2-0.2l-2.4-3.3q-0.2-0.3-0.2-0.7 0.1-0.4 0.4-0.7 0.3-0.2 0.7-0.2 0.4 0.1 0.7 0.4l1.6 2.2 4.1-6.2q0.2-0.3 0.6-0.4 0.5-0.1 0.8 0.1 0.3 0.3 0.4 0.7 0.1 0.4-0.1 0.7l-4.9 7.4q-0.1 0.1-0.2 0.1-0.1 0.1-0.2 0.2-0.1 0-0.2 0.1-0.1 0-0.2 0z"/>
</svg>